<svg viewBox="0 0 1440 900" xmlns="http://www.w3.org/2000/svg">
  <defs>
    <style>
      text { font-family: -apple-system, BlinkMacSystemFont, 'Inter', sans-serif; }
      .label { font-size: 11px; fill: #555; }
    </style>
  </defs>

  <!-- Background -->
  <rect width="1440" height="900" fill="#0f0f14"/>

  <!-- ==================== ICON RAIL (64px) ==================== -->
  <rect x="0" y="0" width="64" height="900" fill="#16161e"/>
  <rect x="12" y="14" width="40" height="40" rx="10" fill="#818cf8"/>
  <text x="32" y="40" font-size="20" fill="#fff" font-weight="700" text-anchor="middle">A</text>
  <g transform="translate(0, 72)">
    <rect x="6" y="0" width="52" height="52" rx="10" fill="#1e1e2e"/>
    <text x="32" y="68" font-size="11" fill="#818cf8" text-anchor="middle" font-weight="500">Home</text>
  </g>
  <g transform="translate(0, 148)">
    <rect x="6" y="0" width="52" height="52" rx="10" fill="transparent"/>
    <text x="32" y="68" font-size="11" fill="#64748b" text-anchor="middle">Search</text>
  </g>
  <g transform="translate(0, 224)">
    <rect x="6" y="0" width="52" height="52" rx="10" fill="transparent"/>
    <text x="32" y="68" font-size="11" fill="#64748b" text-anchor="middle">Tags</text>
  </g>
  <g transform="translate(0, 300)">
    <rect x="6" y="0" width="52" height="52" rx="10" fill="transparent"/>
    <text x="32" y="68" font-size="11" fill="#64748b" text-anchor="middle">Settings</text>
  </g>

  <!-- ==================== HEADER (52px) ==================== -->
  <rect x="64" y="0" width="1376" height="52" fill="#16161e"/>

  <!-- Breadcrumb -->
  <text x="84" y="18" font-size="12" fill="#818cf8">Home</text>
  <text x="118" y="18" font-size="12" fill="#475569">/</text>

  <!-- Anime title and metadata -->
  <text x="84" y="40" font-size="18" fill="#f1f5f9" font-weight="700">Attack on Titan</text>
  <text x="270" y="40" font-size="12" fill="#64748b">4 entries · 342 images</text>

  <!-- Action buttons (right side of header) -->
  <rect x="1286" y="12" width="70" height="28" rx="8" fill="#818cf8"/>
  <text x="1321" y="31" font-size="12" fill="#fff" text-anchor="middle" font-weight="500">Upload</text>

  <rect x="1366" y="12" width="36" height="28" rx="8" fill="#1e1e2e" stroke="#2d2d3f" stroke-width="1"/>
  <text x="1384" y="31" font-size="12" fill="#94a3b8" text-anchor="middle">...</text>

  <!-- ==================== PRIMARY TAB BAR (38px) ==================== -->
  <rect x="64" y="52" width="1376" height="38" fill="#0f0f14"/>
  <line x1="64" y1="89" x2="1440" y2="89" stroke="#2d2d3f" stroke-width="1"/>

  <!-- Images tab -->
  <text x="84" y="77" font-size="13" fill="#64748b">Images</text>

  <!-- Entries tab (active) -->
  <text x="152" y="77" font-size="13" fill="#818cf8" font-weight="600">Entries</text>
  <rect x="152" y="82" width="50" height="2" rx="1" fill="#818cf8"/>

  <!-- Characters tab -->
  <text x="220" y="77" font-size="13" fill="#64748b">Characters</text>

  <!-- Tags tab -->
  <text x="310" y="77" font-size="13" fill="#64748b">Tags</text>

  <!-- Info tab -->
  <text x="364" y="77" font-size="13" fill="#64748b">Info</text>

  <!-- ==================== ENTRIES TAB CONTENT (full-width, no dialog chrome) ==================== -->

  <!-- Column headers -->
  <rect x="84" y="100" width="1336" height="28" fill="#1a1a26" rx="4"/>
  <text x="124" y="119" font-size="11" fill="#64748b" font-weight="500">TYPE</text>
  <text x="194" y="119" font-size="11" fill="#64748b" font-weight="500">NAME</text>
  <text x="620" y="119" font-size="11" fill="#64748b" font-weight="500">AIRING</text>
  <text x="820" y="119" font-size="11" fill="#64748b" font-weight="500">IMAGES</text>
  <text x="1220" y="119" font-size="11" fill="#64748b" font-weight="500">ACTIONS</text>

  <!-- ==================== Entry Row 1: Season 1 ==================== -->
  <rect x="84" y="132" width="1336" height="48" fill="#0f0f14"/>
  <line x1="84" y1="180" x2="1420" y2="180" stroke="#2d2d3f" stroke-width="0.5"/>

  <!-- Expand arrow -->
  <text x="96" y="162" font-size="11" fill="#64748b">&#x25B6;</text>

  <!-- Type badge (S1) -->
  <rect x="116" y="145" width="32" height="20" rx="4" fill="#312e81"/>
  <text x="132" y="159" font-size="10" fill="#818cf8" text-anchor="middle" font-weight="600">S1</text>

  <!-- Entry name -->
  <text x="194" y="162" font-size="13" fill="#f1f5f9">Season 1</text>

  <!-- Airing info -->
  <text x="620" y="162" font-size="12" fill="#94a3b8">Spring 2013</text>

  <!-- Image count -->
  <text x="820" y="162" font-size="12" fill="#94a3b8">87</text>

  <!-- Upload button -->
  <rect x="1160" y="144" width="64" height="26" rx="6" fill="#1e1e2e" stroke="#2d2d3f" stroke-width="1"/>
  <text x="1192" y="162" font-size="11" fill="#94a3b8" text-anchor="middle">Upload</text>

  <!-- Edit button -->
  <rect x="1232" y="144" width="52" height="26" rx="6" fill="#1e1e2e" stroke="#2d2d3f" stroke-width="1"/>
  <text x="1258" y="162" font-size="11" fill="#94a3b8" text-anchor="middle">Edit</text>

  <!-- Delete button -->
  <rect x="1292" y="144" width="56" height="26" rx="6" fill="#1e1e2e" stroke="#2d2d3f" stroke-width="1"/>
  <text x="1320" y="162" font-size="11" fill="#ef4444" text-anchor="middle">Delete</text>

  <!-- ==================== Entry Row 2: Season 2 (INLINE EDITING STATE) ==================== -->
  <rect x="84" y="180" width="1336" height="48" fill="#1a1a26" stroke="#818cf8" stroke-width="1" rx="4"/>

  <!-- Expand arrow -->
  <text x="96" y="210" font-size="11" fill="#64748b">&#x25B6;</text>

  <!-- Type badge (S2) -->
  <rect x="116" y="193" width="32" height="20" rx="4" fill="#312e81"/>
  <text x="132" y="207" font-size="10" fill="#818cf8" text-anchor="middle" font-weight="600">S2</text>

  <!-- Inline edit: Name field (active) -->
  <rect x="188" y="191" width="380" height="26" rx="6" fill="#0f0f14" stroke="#818cf8" stroke-width="1.5"/>
  <text x="200" y="209" font-size="13" fill="#f1f5f9">Season 2|</text>

  <!-- Inline edit: Airing season dropdown -->
  <rect x="584" y="191" width="100" height="26" rx="6" fill="#0f0f14" stroke="#2d2d3f" stroke-width="1"/>
  <text x="596" y="209" font-size="11" fill="#94a3b8">Summer</text>
  <text x="672" y="209" font-size="9" fill="#64748b">&#x25BC;</text>

  <!-- Inline edit: Year input -->
  <rect x="694" y="191" width="64" height="26" rx="6" fill="#0f0f14" stroke="#2d2d3f" stroke-width="1"/>
  <text x="706" y="209" font-size="11" fill="#94a3b8">2017</text>

  <!-- Image count -->
  <text x="820" y="210" font-size="12" fill="#94a3b8">94</text>

  <!-- Save / Cancel for inline edit -->
  <rect x="1160" y="192" width="52" height="26" rx="6" fill="#818cf8"/>
  <text x="1186" y="210" font-size="11" fill="#fff" text-anchor="middle" font-weight="500">Save</text>

  <rect x="1220" y="192" width="60" height="26" rx="6" fill="#1e1e2e" stroke="#2d2d3f" stroke-width="1"/>
  <text x="1250" y="210" font-size="11" fill="#94a3b8" text-anchor="middle">Cancel</text>

  <!-- Editing indicator label -->
  <rect x="1290" y="192" width="72" height="26" rx="6" fill="#312e81"/>
  <text x="1326" y="210" font-size="10" fill="#818cf8" text-anchor="middle">Editing</text>

  <!-- ==================== Entry Row 3: Season 3 (expanded with sub-entries) ==================== -->
  <rect x="84" y="234" width="1336" height="48" fill="#0f0f14"/>
  <line x1="84" y1="282" x2="1420" y2="282" stroke="#2d2d3f" stroke-width="0.5"/>

  <!-- Expand arrow (expanded) -->
  <text x="96" y="264" font-size="11" fill="#818cf8">&#x25BC;</text>

  <!-- Type badge (S3) -->
  <rect x="116" y="247" width="32" height="20" rx="4" fill="#312e81"/>
  <text x="132" y="261" font-size="10" fill="#818cf8" text-anchor="middle" font-weight="600">S3</text>

  <!-- Entry name -->
  <text x="194" y="264" font-size="13" fill="#f1f5f9">Season 3</text>

  <!-- Airing info -->
  <text x="620" y="264" font-size="12" fill="#94a3b8">Summer 2018</text>

  <!-- Image count -->
  <text x="820" y="264" font-size="12" fill="#94a3b8">68</text>

  <!-- Upload button -->
  <rect x="1160" y="246" width="64" height="26" rx="6" fill="#1e1e2e" stroke="#2d2d3f" stroke-width="1"/>
  <text x="1192" y="264" font-size="11" fill="#94a3b8" text-anchor="middle">Upload</text>

  <!-- Edit button -->
  <rect x="1232" y="246" width="52" height="26" rx="6" fill="#1e1e2e" stroke="#2d2d3f" stroke-width="1"/>
  <text x="1258" y="264" font-size="11" fill="#94a3b8" text-anchor="middle">Edit</text>

  <!-- Delete button -->
  <rect x="1292" y="246" width="56" height="26" rx="6" fill="#1e1e2e" stroke="#2d2d3f" stroke-width="1"/>
  <text x="1320" y="264" font-size="11" fill="#ef4444" text-anchor="middle">Delete</text>

  <!-- ==================== Sub-entry: Season 3 Part 1 (indented) ==================== -->
  <rect x="120" y="282" width="1300" height="40" fill="#1a1a26"/>
  <line x1="120" y1="322" x2="1420" y2="322" stroke="#2d2d3f" stroke-width="0.5"/>

  <!-- Indent connector -->
  <line x1="134" y1="282" x2="134" y2="322" stroke="#2d2d3f" stroke-width="1"/>
  <line x1="134" y1="302" x2="150" y2="302" stroke="#2d2d3f" stroke-width="1"/>

  <!-- Sub-entry badge -->
  <rect x="156" y="292" width="24" height="16" rx="3" fill="#1e1e2e" stroke="#2d2d3f" stroke-width="1"/>
  <text x="168" y="304" font-size="9" fill="#64748b" text-anchor="middle">P1</text>

  <text x="194" y="307" font-size="12" fill="#94a3b8">Part 1</text>
  <text x="620" y="307" font-size="11" fill="#64748b">Summer 2018</text>
  <text x="820" y="307" font-size="11" fill="#64748b">34</text>

  <!-- Sub-entry actions -->
  <rect x="1160" y="290" width="64" height="22" rx="5" fill="#1e1e2e" stroke="#2d2d3f" stroke-width="1"/>
  <text x="1192" y="305" font-size="10" fill="#94a3b8" text-anchor="middle">Upload</text>
  <rect x="1232" y="290" width="52" height="22" rx="5" fill="#1e1e2e" stroke="#2d2d3f" stroke-width="1"/>
  <text x="1258" y="305" font-size="10" fill="#94a3b8" text-anchor="middle">Edit</text>
  <rect x="1292" y="290" width="56" height="22" rx="5" fill="#1e1e2e" stroke="#2d2d3f" stroke-width="1"/>
  <text x="1320" y="305" font-size="10" fill="#ef4444" text-anchor="middle">Delete</text>

  <!-- ==================== Sub-entry: Season 3 Part 2 (indented) ==================== -->
  <rect x="120" y="322" width="1300" height="40" fill="#0f0f14"/>
  <line x1="120" y1="362" x2="1420" y2="362" stroke="#2d2d3f" stroke-width="0.5"/>

  <!-- Indent connector -->
  <line x1="134" y1="322" x2="134" y2="344" stroke="#2d2d3f" stroke-width="1"/>
  <line x1="134" y1="344" x2="150" y2="344" stroke="#2d2d3f" stroke-width="1"/>

  <!-- Sub-entry badge -->
  <rect x="156" y="332" width="24" height="16" rx="3" fill="#1e1e2e" stroke="#2d2d3f" stroke-width="1"/>
  <text x="168" y="344" font-size="9" fill="#64748b" text-anchor="middle">P2</text>

  <text x="194" y="347" font-size="12" fill="#94a3b8">Part 2</text>
  <text x="620" y="347" font-size="11" fill="#64748b">Winter 2019</text>
  <text x="820" y="347" font-size="11" fill="#64748b">34</text>

  <!-- Sub-entry actions -->
  <rect x="1160" y="330" width="64" height="22" rx="5" fill="#1e1e2e" stroke="#2d2d3f" stroke-width="1"/>
  <text x="1192" y="345" font-size="10" fill="#94a3b8" text-anchor="middle">Upload</text>
  <rect x="1232" y="330" width="52" height="22" rx="5" fill="#1e1e2e" stroke="#2d2d3f" stroke-width="1"/>
  <text x="1258" y="345" font-size="10" fill="#94a3b8" text-anchor="middle">Edit</text>
  <rect x="1292" y="330" width="56" height="22" rx="5" fill="#1e1e2e" stroke="#2d2d3f" stroke-width="1"/>
  <text x="1320" y="345" font-size="10" fill="#ef4444" text-anchor="middle">Delete</text>

  <!-- Add sub-entry button -->
  <rect x="156" y="370" width="140" height="24" rx="6" fill="#1e1e2e" stroke="#2d2d3f" stroke-width="1" stroke-dasharray="3,3"/>
  <text x="226" y="386" font-size="11" fill="#64748b" text-anchor="middle">+ Add Sub-entry</text>

  <!-- ==================== Entry Row 4: Season 4 (Final Season) ==================== -->
  <rect x="84" y="402" width="1336" height="48" fill="#0f0f14"/>
  <line x1="84" y1="450" x2="1420" y2="450" stroke="#2d2d3f" stroke-width="0.5"/>

  <!-- Expand arrow -->
  <text x="96" y="432" font-size="11" fill="#64748b">&#x25B6;</text>

  <!-- Type badge (S4) -->
  <rect x="116" y="415" width="32" height="20" rx="4" fill="#312e81"/>
  <text x="132" y="429" font-size="10" fill="#818cf8" text-anchor="middle" font-weight="600">S4</text>

  <!-- Entry name -->
  <text x="194" y="432" font-size="13" fill="#f1f5f9">Season 4 (Final Season)</text>

  <!-- Airing info -->
  <text x="620" y="432" font-size="12" fill="#94a3b8">Winter 2021</text>

  <!-- Image count -->
  <text x="820" y="432" font-size="12" fill="#94a3b8">93</text>

  <!-- Upload button -->
  <rect x="1160" y="414" width="64" height="26" rx="6" fill="#1e1e2e" stroke="#2d2d3f" stroke-width="1"/>
  <text x="1192" y="432" font-size="11" fill="#94a3b8" text-anchor="middle">Upload</text>

  <!-- Edit button -->
  <rect x="1232" y="414" width="52" height="26" rx="6" fill="#1e1e2e" stroke="#2d2d3f" stroke-width="1"/>
  <text x="1258" y="432" font-size="11" fill="#94a3b8" text-anchor="middle">Edit</text>

  <!-- Delete button -->
  <rect x="1292" y="414" width="56" height="26" rx="6" fill="#1e1e2e" stroke="#2d2d3f" stroke-width="1"/>
  <text x="1320" y="432" font-size="11" fill="#ef4444" text-anchor="middle">Delete</text>

  <!-- ==================== Entry Row 5: Movie ==================== -->
  <rect x="84" y="450" width="1336" height="48" fill="#0f0f14"/>
  <line x1="84" y1="498" x2="1420" y2="498" stroke="#2d2d3f" stroke-width="0.5"/>

  <!-- No expand arrow for movie -->
  <text x="96" y="480" font-size="11" fill="#2d2d3f">&#x25B6;</text>

  <!-- Type badge (M) -->
  <rect x="116" y="463" width="32" height="20" rx="4" fill="#3b1a1a"/>
  <text x="132" y="477" font-size="10" fill="#fca5a5" text-anchor="middle" font-weight="600">M</text>

  <!-- Entry name -->
  <text x="194" y="480" font-size="13" fill="#f1f5f9">Chronicle</text>

  <!-- Airing info -->
  <text x="620" y="480" font-size="12" fill="#94a3b8">2020</text>

  <!-- Image count -->
  <text x="820" y="480" font-size="12" fill="#94a3b8">12</text>

  <!-- Upload button -->
  <rect x="1160" y="462" width="64" height="26" rx="6" fill="#1e1e2e" stroke="#2d2d3f" stroke-width="1"/>
  <text x="1192" y="480" font-size="11" fill="#94a3b8" text-anchor="middle">Upload</text>

  <!-- Edit button -->
  <rect x="1232" y="462" width="52" height="26" rx="6" fill="#1e1e2e" stroke="#2d2d3f" stroke-width="1"/>
  <text x="1258" y="480" font-size="11" fill="#94a3b8" text-anchor="middle">Edit</text>

  <!-- Delete button -->
  <rect x="1292" y="462" width="56" height="26" rx="6" fill="#1e1e2e" stroke="#2d2d3f" stroke-width="1"/>
  <text x="1320" y="480" font-size="11" fill="#ef4444" text-anchor="middle">Delete</text>

  <!-- ==================== ADD ENTRY FORM ==================== -->
  <rect x="84" y="514" width="1336" height="100" rx="8" fill="#1a1a26" stroke="#2d2d3f" stroke-width="1" stroke-dasharray="4,4"/>

  <text x="108" y="538" font-size="12" fill="#818cf8" font-weight="500">+ Add New Entry</text>

  <!-- Type selector -->
  <text x="108" y="562" font-size="11" fill="#64748b">Type</text>
  <rect x="140" y="550" width="80" height="26" rx="6" fill="#818cf8"/>
  <text x="180" y="568" font-size="11" fill="#fff" text-anchor="middle" font-weight="500">Season</text>
  <rect x="226" y="550" width="64" height="26" rx="6" fill="#1e1e2e" stroke="#2d2d3f" stroke-width="1"/>
  <text x="258" y="568" font-size="11" fill="#64748b" text-anchor="middle">Movie</text>
  <rect x="296" y="550" width="60" height="26" rx="6" fill="#1e1e2e" stroke="#2d2d3f" stroke-width="1"/>
  <text x="326" y="568" font-size="11" fill="#64748b" text-anchor="middle">Other</text>

  <!-- Season number -->
  <text x="386" y="562" font-size="11" fill="#64748b">Season #</text>
  <rect x="450" y="550" width="48" height="26" rx="6" fill="#0f0f14" stroke="#2d2d3f" stroke-width="1"/>
  <text x="466" y="568" font-size="11" fill="#94a3b8">5</text>

  <!-- Airing season -->
  <text x="520" y="562" font-size="11" fill="#64748b">Airing</text>
  <rect x="560" y="550" width="100" height="26" rx="6" fill="#0f0f14" stroke="#2d2d3f" stroke-width="1"/>
  <text x="572" y="568" font-size="11" fill="#64748b">Select...</text>
  <text x="648" y="568" font-size="9" fill="#64748b">&#x25BC;</text>

  <!-- Year -->
  <text x="680" y="562" font-size="11" fill="#64748b">Year</text>
  <rect x="710" y="550" width="60" height="26" rx="6" fill="#0f0f14" stroke="#2d2d3f" stroke-width="1"/>
  <text x="722" y="568" font-size="11" fill="#64748b">2025</text>

  <!-- Add button -->
  <rect x="790" y="550" width="80" height="26" rx="6" fill="#818cf8"/>
  <text x="830" y="568" font-size="11" fill="#fff" text-anchor="middle" font-weight="500">Add Entry</text>

  <!-- ==================== FOOTER ==================== -->
  <rect x="84" y="630" width="1336" height="32" fill="#0f0f14"/>
  <text x="100" y="651" font-size="11" fill="#64748b">5 entries · 354 total images</text>

  <!-- Annotation -->
  <text x="752" y="893" class="label" text-anchor="middle">Entries tab -- Full-page management: table with type badges, inline editing (row 2), expandable sub-entries (row 3), add form at bottom</text>
</svg>