<svg viewBox="0 0 375 812" xmlns="http://www.w3.org/2000/svg">
  <defs>
    <style>
      text { font-family: -apple-system, BlinkMacSystemFont, 'Inter', sans-serif; }
    </style>
  </defs>

  <!-- Background -->
  <rect width="375" height="812" fill="#0f0f14"/>

  <!-- Status bar -->
  <text x="20" y="30" font-size="12" fill="#f1f5f9" font-weight="600">9:41</text>

  <!-- Header -->
  <text x="20" y="62" font-size="20" fill="#f1f5f9" font-weight="700">Tags</text>
  <text x="20" y="80" font-size="11" fill="#64748b">32 tags</text>
  <rect x="296" y="48" width="64" height="28" rx="8" fill="#818cf8"/>
  <text x="328" y="67" font-size="11" fill="#fff" text-anchor="middle">+ New</text>

  <!-- Search -->
  <rect x="20" y="92" width="335" height="36" rx="18" fill="#1e1e2e" stroke="#2d2d3f"/>
  <text x="48" y="115" font-size="12" fill="#475569">Search tags...</text>

  <!-- Tag cards (real tags only -- NO character names) -->
  <g transform="translate(20, 140)">
    <rect width="335" height="72" rx="10" fill="#1e1e2e"/>
    <rect width="72" height="72" rx="10" fill="#14532d"/>
    <text x="36" y="40" font-size="10" fill="#6ee7b7" text-anchor="middle">4 imgs</text>
    <text x="86" y="32" font-size="14" fill="#f1f5f9" font-weight="500">Outdoor</text>
    <text x="86" y="50" font-size="11" fill="#64748b">124 images -- 8 anime</text>
    <text x="316" y="40" font-size="13" fill="#475569" text-anchor="end">&gt;</text>
  </g>

  <g transform="translate(20, 220)">
    <rect width="335" height="72" rx="10" fill="#1e1e2e"/>
    <rect width="72" height="72" rx="10" fill="#312e81"/>
    <text x="36" y="40" font-size="10" fill="#818cf8" text-anchor="middle">4 imgs</text>
    <text x="86" y="32" font-size="14" fill="#f1f5f9" font-weight="500">Indoor</text>
    <text x="86" y="50" font-size="11" fill="#64748b">98 images -- 7 anime</text>
    <text x="316" y="40" font-size="13" fill="#475569" text-anchor="end">&gt;</text>
  </g>

  <g transform="translate(20, 300)">
    <rect width="335" height="72" rx="10" fill="#1e1e2e"/>
    <rect width="72" height="72" rx="10" fill="#831843"/>
    <text x="36" y="40" font-size="10" fill="#f9a8d4" text-anchor="middle">4 imgs</text>
    <text x="86" y="32" font-size="14" fill="#f1f5f9" font-weight="500">Action</text>
    <text x="86" y="50" font-size="11" fill="#64748b">156 images -- 10 anime</text>
    <text x="316" y="40" font-size="13" fill="#475569" text-anchor="end">&gt;</text>
  </g>

  <g transform="translate(20, 380)">
    <rect width="335" height="72" rx="10" fill="#1e1e2e"/>
    <rect width="72" height="72" rx="10" fill="#3b0764"/>
    <text x="86" y="32" font-size="14" fill="#f1f5f9" font-weight="500">Romance</text>
    <text x="86" y="50" font-size="11" fill="#64748b">42 images -- 4 anime</text>
    <text x="316" y="40" font-size="13" fill="#475569" text-anchor="end">&gt;</text>
  </g>

  <g transform="translate(20, 460)">
    <rect width="335" height="72" rx="10" fill="#1e1e2e"/>
    <rect width="72" height="72" rx="10" fill="#1e3a5f"/>
    <text x="86" y="32" font-size="14" fill="#f1f5f9" font-weight="500">School</text>
    <text x="86" y="50" font-size="11" fill="#64748b">89 images -- 6 anime</text>
    <text x="316" y="40" font-size="13" fill="#475569" text-anchor="end">&gt;</text>
  </g>

  <g transform="translate(20, 540)">
    <rect width="335" height="72" rx="10" fill="#1e1e2e"/>
    <rect width="72" height="72" rx="10" fill="#713f12"/>
    <text x="86" y="32" font-size="14" fill="#f1f5f9" font-weight="500">City</text>
    <text x="86" y="50" font-size="11" fill="#64748b">67 images -- 5 anime</text>
    <text x="316" y="40" font-size="13" fill="#475569" text-anchor="end">&gt;</text>
  </g>

  <g transform="translate(20, 620)">
    <rect width="335" height="72" rx="10" fill="#1e1e2e"/>
    <rect width="72" height="72" rx="10" fill="#14532d"/>
    <text x="86" y="32" font-size="14" fill="#f1f5f9" font-weight="500">Forest</text>
    <text x="86" y="50" font-size="11" fill="#64748b">34 images -- 3 anime</text>
    <text x="316" y="40" font-size="13" fill="#475569" text-anchor="end">&gt;</text>
  </g>

  <g transform="translate(20, 700)">
    <rect width="335" height="40" rx="10" fill="#1e1e2e"/>
    <rect width="40" height="40" rx="10" fill="#7f1d1d"/>
    <text x="54" y="26" font-size="14" fill="#f1f5f9" font-weight="500">Battle</text>
  </g>

  <!-- Bottom Tab Bar (4 items) -->
  <rect x="0" y="748" width="375" height="64" fill="#16161e" stroke="#2d2d3f" stroke-width="1"/>
  <g transform="translate(18, 756)">
    <text x="36" y="40" font-size="10" fill="#64748b" text-anchor="middle">Home</text>
  </g>
  <g transform="translate(108, 756)">
    <text x="36" y="40" font-size="10" fill="#64748b" text-anchor="middle">Search</text>
  </g>
  <g transform="translate(198, 756)">
    <rect x="10" y="-2" width="52" height="28" rx="14" fill="#1e1e2e"/>
    <text x="36" y="40" font-size="10" fill="#818cf8" text-anchor="middle" font-weight="500">Tags</text>
  </g>
  <g transform="translate(288, 756)">
    <text x="36" y="40" font-size="10" fill="#64748b" text-anchor="middle">Settings</text>
  </g>
</svg>