<svg viewBox="0 0 3840 2160" xmlns="http://www.w3.org/2000/svg">
  <defs>
    <style>
      text { font-family: -apple-system, BlinkMacSystemFont, 'Inter', sans-serif; }
      .label { font-size: 22px; fill: #888; }
      .heading { font-size: 44px; fill: #f1f5f9; font-weight: 700; }
      .subheading { font-size: 28px; fill: #f1f5f9; font-weight: 500; }
      .body { font-size: 24px; fill: #94a3b8; }
      .small { font-size: 20px; fill: #64748b; }
      .accent { fill: #818cf8; }
      .accent-text { font-size: 24px; fill: #818cf8; font-weight: 500; }
    </style>
  </defs>

  <!-- Background: dark theme -->
  <rect width="3840" height="2160" fill="#0f0f14"/>

  <!-- ==================== ICON RAIL SIDEBAR (80px) ==================== -->
  <rect x="0" y="0" width="80" height="2160" fill="#16161e"/>

  <!-- App logo -->
  <rect x="16" y="20" width="48" height="48" rx="12" fill="#818cf8"/>
  <text x="40" y="52" font-size="28" fill="#fff" font-weight="700" text-anchor="middle">A</text>

  <!-- Home (active) -->
  <g transform="translate(0, 100)">
    <rect x="8" y="0" width="64" height="64" rx="12" fill="#1e1e2e"/>
    <rect x="24" y="12" width="32" height="24" rx="4" fill="none" stroke="#818cf8" stroke-width="2.5"/>
    <rect x="28" y="18" width="10" height="12" rx="2" fill="#818cf8" opacity="0.4"/>
    <rect x="42" y="18" width="10" height="12" rx="2" fill="#818cf8" opacity="0.4"/>
    <text x="40" y="84" font-size="18" fill="#818cf8" text-anchor="middle" font-weight="500">Home</text>
  </g>

  <!-- Search -->
  <g transform="translate(0, 210)">
    <rect x="8" y="0" width="64" height="64" rx="12" fill="transparent"/>
    <circle cx="36" cy="28" r="12" fill="none" stroke="#64748b" stroke-width="2.5"/>
    <line x1="44" y1="36" x2="54" y2="46" stroke="#64748b" stroke-width="2.5"/>
    <text x="40" y="84" font-size="18" fill="#64748b" text-anchor="middle">Search</text>
  </g>

  <!-- Tags -->
  <g transform="translate(0, 320)">
    <rect x="8" y="0" width="64" height="64" rx="12" fill="transparent"/>
    <rect x="22" y="14" width="28" height="20" rx="6" fill="none" stroke="#64748b" stroke-width="2.5" transform="rotate(-8, 36, 24)"/>
    <circle cx="32" cy="24" r="3" fill="#64748b"/>
    <text x="40" y="84" font-size="18" fill="#64748b" text-anchor="middle">Tags</text>
  </g>

  <!-- Divider -->
  <line x1="20" y1="440" x2="60" y2="440" stroke="#2d2d3f" stroke-width="1.5"/>

  <!-- Backup -->
  <g transform="translate(0, 460)">
    <rect x="8" y="0" width="64" height="64" rx="12" fill="transparent"/>
    <circle cx="40" cy="28" r="14" fill="none" stroke="#64748b" stroke-width="2.5"/>
    <path d="M32 28 L40 20 L48 28" fill="none" stroke="#64748b" stroke-width="2.5"/>
    <line x1="40" y1="20" x2="40" y2="36" stroke="#64748b" stroke-width="2.5"/>
    <text x="40" y="84" font-size="18" fill="#64748b" text-anchor="middle">Backup</text>
  </g>

  <!-- Settings -->
  <g transform="translate(0, 570)">
    <rect x="8" y="0" width="64" height="64" rx="12" fill="transparent"/>
    <circle cx="40" cy="28" r="14" fill="none" stroke="#64748b" stroke-width="2.5"/>
    <circle cx="40" cy="28" r="5" fill="#64748b"/>
    <text x="40" y="84" font-size="18" fill="#64748b" text-anchor="middle">Settings</text>
  </g>

  <!-- ==================== MAIN CONTENT AREA ==================== -->

  <!-- Hero / Featured Section (top band) -->
  <rect x="80" y="0" width="3760" height="420" fill="#16161e"/>

  <!-- Hero gradient overlay -->
  <defs>
    <linearGradient id="heroGrad" x1="0" y1="0" x2="0" y2="1">
      <stop offset="0%" stop-color="#16161e" stop-opacity="0"/>
      <stop offset="100%" stop-color="#0f0f14"/>
    </linearGradient>
  </defs>
  <rect x="80" y="320" width="3760" height="100" fill="url(#heroGrad)"/>

  <!-- Page title and quick actions -->
  <text x="160" y="80" class="heading">Home</text>
  <text x="160" y="120" class="body">24 anime -- 1,847 images</text>

  <!-- Search / Command palette trigger (large, prominent) -->
  <rect x="160" y="150" width="800" height="56" rx="28" fill="#1e1e2e" stroke="#2d2d3f" stroke-width="1.5"/>
  <text x="200" y="186" class="body" fill="#475569">Search anything... Ctrl+K</text>
  <rect x="900" y="164" width="44" height="28" rx="6" fill="#2d2d3f"/>
  <text x="922" y="184" font-size="16" fill="#64748b" text-anchor="middle">/</text>

  <!-- Quick action buttons (right side of hero) -->
  <rect x="3260" y="64" width="200" height="52" rx="12" fill="#818cf8"/>
  <text x="3360" y="98" font-size="24" fill="#fff" text-anchor="middle" font-weight="500">+ Add Anime</text>

  <rect x="3480" y="64" width="180" height="52" rx="12" fill="#1e1e2e" stroke="#2d2d3f" stroke-width="1.5"/>
  <text x="3570" y="98" font-size="24" fill="#94a3b8" text-anchor="middle">Import</text>

  <!-- Recently Updated section (horizontal scroll strip) -->
  <text x="160" y="270" font-size="28" fill="#94a3b8" font-weight="600">Recently Updated</text>
  <text x="620" y="270" font-size="22" fill="#818cf8">See all</text>

  <!-- Recent anime cards (horizontal strip -- 5 visible) -->
  <g transform="translate(160, 290)">
    <rect width="360" height="110" rx="12" fill="#1e1e2e"/>
    <rect width="110" height="110" rx="12" fill="#312e81"/>
    <text x="55" y="62" font-size="20" fill="#818cf8" text-anchor="middle">Cover</text>
    <text x="130" y="44" font-size="22" fill="#f1f5f9" font-weight="500">Attack on Titan</text>
    <text x="130" y="70" font-size="18" fill="#64748b">Updated 2h ago</text>
    <text x="130" y="94" font-size="18" fill="#64748b">+4 images added</text>
  </g>

  <g transform="translate(540, 290)">
    <rect width="360" height="110" rx="12" fill="#1e1e2e"/>
    <rect width="110" height="110" rx="12" fill="#831843"/>
    <text x="55" y="62" font-size="20" fill="#f9a8d4" text-anchor="middle">Cover</text>
    <text x="130" y="44" font-size="22" fill="#f1f5f9" font-weight="500">Spy x Family</text>
    <text x="130" y="70" font-size="18" fill="#64748b">Updated yesterday</text>
    <text x="130" y="94" font-size="18" fill="#64748b">+12 images added</text>
  </g>

  <g transform="translate(920, 290)">
    <rect width="360" height="110" rx="12" fill="#1e1e2e"/>
    <rect width="110" height="110" rx="12" fill="#14532d"/>
    <text x="55" y="62" font-size="20" fill="#6ee7b7" text-anchor="middle">Cover</text>
    <text x="130" y="44" font-size="22" fill="#f1f5f9" font-weight="500">Frieren</text>
    <text x="130" y="70" font-size="18" fill="#64748b">Updated 3 days ago</text>
    <text x="130" y="94" font-size="18" fill="#64748b">New entry created</text>
  </g>

  <g transform="translate(1300, 290)">
    <rect width="360" height="110" rx="12" fill="#1e1e2e"/>
    <rect width="110" height="110" rx="12" fill="#713f12"/>
    <text x="55" y="62" font-size="20" fill="#fcd34d" text-anchor="middle">Cover</text>
    <text x="130" y="44" font-size="22" fill="#f1f5f9" font-weight="500">Demon Slayer</text>
    <text x="130" y="70" font-size="18" fill="#64748b">Updated last week</text>
  </g>

  <!-- ==================== COLLECTION GRID ==================== -->
  <!-- Filter / Sort bar -->
  <text x="160" y="480" font-size="28" fill="#94a3b8" font-weight="600">Collection</text>

  <!-- Sort and filter controls inline -->
  <rect x="400" y="452" width="200" height="40" rx="20" fill="#1e1e2e" stroke="#2d2d3f" stroke-width="1"/>
  <text x="420" y="478" font-size="20" fill="#64748b">Filter...</text>

  <rect x="620" y="452" width="160" height="40" rx="20" fill="#1e1e2e" stroke="#2d2d3f" stroke-width="1"/>
  <text x="640" y="478" font-size="20" fill="#64748b">Sort: A-Z</text>

  <!-- Grid: 6 columns at 4K, generous spacing -->
  <!-- Row 1 -->
  <g transform="translate(160, 510)">
    <rect width="560" height="380" rx="16" fill="#1e1e2e" stroke="#2d2d3f" stroke-width="1"/>
    <rect width="560" height="280" rx="16" fill="#312e81"/>
    <rect y="268" width="560" height="12" fill="#1e1e2e"/>
    <text x="280" y="150" font-size="24" fill="#818cf8" text-anchor="middle">Cover Image</text>
    <text x="24" y="320" font-size="26" fill="#f1f5f9" font-weight="500">Attack on Titan</text>
    <text x="24" y="350" font-size="20" fill="#64748b">4 entries -- 342 images</text>
    <rect x="440" y="300" width="96" height="32" rx="16" fill="#1e1e2e" stroke="#818cf8" stroke-width="1"/>
    <text x="488" y="322" font-size="16" fill="#818cf8" text-anchor="middle">S4</text>
  </g>

  <g transform="translate(750, 510)">
    <rect width="560" height="380" rx="16" fill="#1e1e2e" stroke="#2d2d3f" stroke-width="1"/>
    <rect width="560" height="280" rx="16" fill="#831843"/>
    <rect y="268" width="560" height="12" fill="#1e1e2e"/>
    <text x="280" y="150" font-size="24" fill="#f9a8d4" text-anchor="middle">Cover Image</text>
    <text x="24" y="320" font-size="26" fill="#f1f5f9" font-weight="500">Spy x Family</text>
    <text x="24" y="350" font-size="20" fill="#64748b">2 entries -- 218 images</text>
  </g>

  <g transform="translate(1340, 510)">
    <rect width="560" height="380" rx="16" fill="#1e1e2e" stroke="#2d2d3f" stroke-width="1"/>
    <rect width="560" height="280" rx="16" fill="#14532d"/>
    <rect y="268" width="560" height="12" fill="#1e1e2e"/>
    <text x="280" y="150" font-size="24" fill="#6ee7b7" text-anchor="middle">Cover Image</text>
    <text x="24" y="320" font-size="26" fill="#f1f5f9" font-weight="500">Jujutsu Kaisen</text>
    <text x="24" y="350" font-size="20" fill="#64748b">2 entries -- 187 images</text>
  </g>

  <g transform="translate(1930, 510)">
    <rect width="560" height="380" rx="16" fill="#1e1e2e" stroke="#2d2d3f" stroke-width="1"/>
    <rect width="560" height="280" rx="16" fill="#713f12"/>
    <rect y="268" width="560" height="12" fill="#1e1e2e"/>
    <text x="280" y="150" font-size="24" fill="#fcd34d" text-anchor="middle">Cover Image</text>
    <text x="24" y="320" font-size="26" fill="#f1f5f9" font-weight="500">Demon Slayer</text>
    <text x="24" y="350" font-size="20" fill="#64748b">Movie + 3 entries -- 276 images</text>
  </g>

  <g transform="translate(2520, 510)">
    <rect width="560" height="380" rx="16" fill="#1e1e2e" stroke="#2d2d3f" stroke-width="1"/>
    <rect width="560" height="280" rx="16" fill="#3b0764"/>
    <rect y="268" width="560" height="12" fill="#1e1e2e"/>
    <text x="280" y="150" font-size="24" fill="#c4b5fd" text-anchor="middle">Cover Image</text>
    <text x="24" y="320" font-size="26" fill="#f1f5f9" font-weight="500">Frieren</text>
    <text x="24" y="350" font-size="20" fill="#64748b">1 entry -- 156 images</text>
  </g>

  <g transform="translate(3110, 510)">
    <rect width="560" height="380" rx="16" fill="#1e1e2e" stroke="#2d2d3f" stroke-width="1"/>
    <rect width="560" height="280" rx="16" fill="#1c1917"/>
    <rect y="268" width="560" height="12" fill="#1e1e2e"/>
    <text x="280" y="150" font-size="24" fill="#a8a29e" text-anchor="middle">Cover Image</text>
    <text x="24" y="320" font-size="26" fill="#f1f5f9" font-weight="500">Chainsaw Man</text>
    <text x="24" y="350" font-size="20" fill="#64748b">1 entry -- 94 images</text>
  </g>

  <!-- Row 2 -->
  <g transform="translate(160, 920)">
    <rect width="560" height="380" rx="16" fill="#1e1e2e" stroke="#2d2d3f" stroke-width="1"/>
    <rect width="560" height="280" rx="16" fill="#881337"/>
    <rect y="268" width="560" height="12" fill="#1e1e2e"/>
    <text x="280" y="150" font-size="24" fill="#fb7185" text-anchor="middle">Cover Image</text>
    <text x="24" y="320" font-size="26" fill="#f1f5f9" font-weight="500">Bocchi the Rock!</text>
    <text x="24" y="350" font-size="20" fill="#64748b">1 entry -- 112 images</text>
  </g>

  <g transform="translate(750, 920)">
    <rect width="560" height="380" rx="16" fill="#1e1e2e" stroke="#2d2d3f" stroke-width="1"/>
    <rect width="560" height="280" rx="16" fill="#134e4a"/>
    <rect y="268" width="560" height="12" fill="#1e1e2e"/>
    <text x="280" y="150" font-size="24" fill="#5eead4" text-anchor="middle">Cover Image</text>
    <text x="24" y="320" font-size="26" fill="#f1f5f9" font-weight="500">Oshi no Ko</text>
    <text x="24" y="350" font-size="20" fill="#64748b">2 entries -- 203 images</text>
  </g>

  <g transform="translate(1340, 920)">
    <rect width="560" height="380" rx="16" fill="#1e1e2e" stroke="#2d2d3f" stroke-width="1"/>
    <rect width="560" height="280" rx="16" fill="#7f1d1d"/>
    <rect y="268" width="560" height="12" fill="#1e1e2e"/>
    <text x="280" y="150" font-size="24" fill="#fca5a5" text-anchor="middle">Cover Image</text>
    <text x="24" y="320" font-size="26" fill="#f1f5f9" font-weight="500">My Hero Academia</text>
    <text x="24" y="350" font-size="20" fill="#64748b">7 entries -- 259 images</text>
  </g>

  <g transform="translate(1930, 920)">
    <rect width="560" height="380" rx="16" fill="#1e1e2e" stroke="#2d2d3f" stroke-width="1"/>
    <rect width="560" height="280" rx="16" fill="#1e3a5f"/>
    <rect y="268" width="560" height="12" fill="#1e1e2e"/>
    <text x="280" y="150" font-size="24" fill="#7dd3fc" text-anchor="middle">Cover Image</text>
    <text x="24" y="320" font-size="26" fill="#f1f5f9" font-weight="500">Violet Evergarden</text>
    <text x="24" y="350" font-size="20" fill="#64748b">Movie + 1 entry -- 180 images</text>
  </g>

  <g transform="translate(2520, 920)">
    <rect width="560" height="380" rx="16" fill="#1e1e2e" stroke="#2d2d3f" stroke-width="1"/>
    <rect width="560" height="280" rx="16" fill="#4a1d96"/>
    <rect y="268" width="560" height="12" fill="#1e1e2e"/>
    <text x="280" y="150" font-size="24" fill="#a78bfa" text-anchor="middle">Cover Image</text>
    <text x="24" y="320" font-size="26" fill="#f1f5f9" font-weight="500">Mob Psycho 100</text>
    <text x="24" y="350" font-size="20" fill="#64748b">3 entries -- 134 images</text>
  </g>

  <g transform="translate(3110, 920)">
    <rect width="560" height="380" rx="16" fill="#1e1e2e" stroke="#2d2d3f" stroke-width="1"/>
    <rect width="560" height="280" rx="16" fill="#365314"/>
    <rect y="268" width="560" height="12" fill="#1e1e2e"/>
    <text x="280" y="150" font-size="24" fill="#a3e635" text-anchor="middle">Cover Image</text>
    <text x="24" y="320" font-size="26" fill="#f1f5f9" font-weight="500">Vinland Saga</text>
    <text x="24" y="350" font-size="20" fill="#64748b">2 entries -- 98 images</text>
  </g>

  <!-- Row 3 (partial, scrollable) -->
  <g transform="translate(160, 1330)">
    <rect width="560" height="380" rx="16" fill="#1e1e2e" stroke="#2d2d3f" stroke-width="1"/>
    <rect width="560" height="280" rx="16" fill="#312e81"/>
    <rect y="268" width="560" height="12" fill="#1e1e2e"/>
    <text x="280" y="150" font-size="24" fill="#818cf8" text-anchor="middle">Cover Image</text>
    <text x="24" y="320" font-size="26" fill="#f1f5f9" font-weight="500">Solo Leveling</text>
    <text x="24" y="350" font-size="20" fill="#64748b">1 entry -- 67 images</text>
  </g>

  <g transform="translate(750, 1330)">
    <rect width="560" height="380" rx="16" fill="#1e1e2e" stroke="#2d2d3f" stroke-width="1"/>
    <rect width="560" height="280" rx="16" fill="#78350f"/>
    <rect y="268" width="560" height="12" fill="#1e1e2e"/>
    <text x="280" y="150" font-size="24" fill="#fbbf24" text-anchor="middle">Cover Image</text>
    <text x="24" y="320" font-size="26" fill="#f1f5f9" font-weight="500">Made in Abyss</text>
    <text x="24" y="350" font-size="20" fill="#64748b">2 entries -- 145 images</text>
  </g>

  <!-- Import progress toast (bottom right, floating) -->
  <rect x="3380" y="2060" width="400" height="72" rx="16" fill="#1e1e2e" stroke="#2d2d3f" stroke-width="1"/>
  <text x="3410" y="2094" font-size="22" fill="#f1f5f9">Importing "Frieren S2"...</text>
  <rect x="3410" y="2108" width="320" height="6" rx="3" fill="#2d2d3f"/>
  <rect x="3410" y="2108" width="192" height="6" rx="3" fill="#818cf8"/>
  <text x="3760" y="2098" font-size="18" fill="#64748b" text-anchor="end">60%</text>

  <!-- Annotations -->
  <text x="40" y="2140" class="label">80px icon rail -- Home, Search, Tags, Backup, Settings</text>
  <text x="1960" y="2140" class="label" text-anchor="middle">4K Desktop (3840x2160) -- Dark theme -- 6-column grid</text>
  <text x="3680" y="2140" class="label" text-anchor="end">Netflix-style hero + collection grid</text>
</svg>
