<svg viewBox="0 0 1440 900" xmlns="http://www.w3.org/2000/svg">
  <defs>
    <style>
      text { font-family: -apple-system, BlinkMacSystemFont, 'Inter', sans-serif; }
      .label { font-size: 11px; fill: #555; }
    </style>
  </defs>

  <!-- Background (anime detail page, dimmed) -->
  <rect width="1440" height="900" fill="#0f0f14"/>

  <!-- Icon rail (64px) -->
  <rect x="0" y="0" width="64" height="900" fill="#16161e" opacity="0.4"/>
  <rect x="12" y="14" width="40" height="40" rx="10" fill="#818cf8" opacity="0.4"/>
  <text x="32" y="40" font-size="20" fill="#fff" font-weight="700" text-anchor="middle" opacity="0.4">A</text>

  <!-- Dimmed header behind modal -->
  <rect x="64" y="0" width="1376" height="72" fill="#16161e" opacity="0.3"/>
  <text x="84" y="46" font-size="20" fill="#f1f5f9" font-weight="700" opacity="0.3">Attack on Titan</text>

  <!-- Dimmed entry tabs -->
  <rect x="64" y="72" width="1376" height="38" fill="#0f0f14" opacity="0.3"/>

  <!-- Dimmed image grid placeholders -->
  <g opacity="0.15">
    <rect x="84" y="120" width="260" height="174" rx="8" fill="#312e81"/>
    <rect x="354" y="120" width="260" height="210" rx="8" fill="#831843"/>
    <rect x="624" y="120" width="260" height="160" rx="8" fill="#14532d"/>
    <rect x="894" y="120" width="260" height="194" rx="8" fill="#713f12"/>
    <rect x="1164" y="120" width="260" height="174" rx="8" fill="#3b0764"/>
    <rect x="84" y="304" width="260" height="200" rx="8" fill="#1c1917"/>
    <rect x="354" y="340" width="260" height="174" rx="8" fill="#881337"/>
    <rect x="624" y="290" width="260" height="220" rx="8" fill="#134e4a"/>
    <rect x="894" y="324" width="260" height="180" rx="8" fill="#7f1d1d"/>
    <rect x="1164" y="304" width="260" height="200" rx="8" fill="#1e3a5f"/>
  </g>

  <!-- Dark overlay for modal backdrop -->
  <rect width="1440" height="900" fill="#000" opacity="0.55"/>

  <!-- ==================== MANAGE DIALOG (80% x 80%) ==================== -->
  <!-- Dialog: 1152 x 720, centered -->
  <rect x="144" y="90" width="1152" height="720" rx="16" fill="#16161e" stroke="#2d2d3f" stroke-width="1"/>

  <!-- Dialog header -->
  <rect x="144" y="90" width="1152" height="56" rx="16" fill="#1a1a26"/>
  <!-- Fix bottom corners of header (overlap with rounded top) -->
  <rect x="144" y="120" width="1152" height="26" fill="#1a1a26"/>

  <text x="176" y="125" font-size="16" fill="#f1f5f9" font-weight="600">Manage Attack on Titan</text>

  <!-- Close button (X) -->
  <rect x="1252" y="102" width="32" height="32" rx="8" fill="#1e1e2e" stroke="#2d2d3f" stroke-width="1"/>
  <line x1="1262" y1="112" x2="1274" y2="124" stroke="#94a3b8" stroke-width="1.5" stroke-linecap="round"/>
  <line x1="1274" y1="112" x2="1262" y2="124" stroke="#94a3b8" stroke-width="1.5" stroke-linecap="round"/>

  <!-- ==================== TAB BAR ==================== -->
  <rect x="144" y="146" width="1152" height="38" fill="#16161e"/>
  <line x1="144" y1="183" x2="1296" y2="183" stroke="#2d2d3f" stroke-width="1"/>

  <!-- Entries tab (active) -->
  <text x="176" y="171" font-size="13" fill="#818cf8" font-weight="600">Entries</text>
  <rect x="176" y="176" width="46" height="2" rx="1" fill="#818cf8"/>

  <!-- Characters tab -->
  <text x="246" y="171" font-size="13" fill="#64748b">Characters</text>

  <!-- Tags tab -->
  <text x="336" y="171" font-size="13" fill="#64748b">Tags</text>

  <!-- Info tab -->
  <text x="396" y="171" font-size="13" fill="#64748b">Info</text>

  <!-- ==================== ENTRIES TAB CONTENT ==================== -->

  <!-- Column headers -->
  <rect x="160" y="195" width="1120" height="28" fill="#1a1a26" rx="4"/>
  <text x="200" y="214" font-size="11" fill="#64748b" font-weight="500">TYPE</text>
  <text x="270" y="214" font-size="11" fill="#64748b" font-weight="500">NAME</text>
  <text x="620" y="214" font-size="11" fill="#64748b" font-weight="500">AIRING</text>
  <text x="800" y="214" font-size="11" fill="#64748b" font-weight="500">IMAGES</text>
  <text x="1080" y="214" font-size="11" fill="#64748b" font-weight="500">ACTIONS</text>

  <!-- ==================== Entry Row 1: Season 1 ==================== -->
  <rect x="160" y="228" width="1120" height="48" fill="#16161e"/>
  <line x1="160" y1="276" x2="1280" y2="276" stroke="#2d2d3f" stroke-width="0.5"/>

  <!-- Expand arrow -->
  <text x="172" y="258" font-size="11" fill="#64748b">&#x25B6;</text>

  <!-- Type badge (S1) -->
  <rect x="192" y="241" width="32" height="20" rx="4" fill="#312e81"/>
  <text x="208" y="255" font-size="10" fill="#818cf8" text-anchor="middle" font-weight="600">S1</text>

  <!-- Entry name -->
  <text x="270" y="258" font-size="13" fill="#f1f5f9">Season 1</text>

  <!-- Airing info -->
  <text x="620" y="258" font-size="12" fill="#94a3b8">Spring 2013</text>

  <!-- Image count -->
  <text x="800" y="258" font-size="12" fill="#94a3b8">87</text>

  <!-- Upload button -->
  <rect x="1020" y="240" width="64" height="26" rx="6" fill="#1e1e2e" stroke="#2d2d3f" stroke-width="1"/>
  <text x="1052" y="258" font-size="11" fill="#94a3b8" text-anchor="middle">Upload</text>

  <!-- Delete button -->
  <rect x="1092" y="240" width="56" height="26" rx="6" fill="#1e1e2e" stroke="#2d2d3f" stroke-width="1"/>
  <text x="1120" y="258" font-size="11" fill="#ef4444" text-anchor="middle">Delete</text>

  <!-- ==================== Entry Row 2: Season 2 (INLINE EDITING STATE) ==================== -->
  <rect x="160" y="276" width="1120" height="48" fill="#1a1a26" stroke="#818cf8" stroke-width="1" rx="4"/>

  <!-- Expand arrow -->
  <text x="172" y="306" font-size="11" fill="#64748b">&#x25B6;</text>

  <!-- Type badge (S2) -->
  <rect x="192" y="289" width="32" height="20" rx="4" fill="#312e81"/>
  <text x="208" y="303" font-size="10" fill="#818cf8" text-anchor="middle" font-weight="600">S2</text>

  <!-- Inline edit: Name field (active) -->
  <rect x="264" y="287" width="300" height="26" rx="6" fill="#0f0f14" stroke="#818cf8" stroke-width="1.5"/>
  <text x="276" y="305" font-size="13" fill="#f1f5f9">Season 2|</text>

  <!-- Inline edit: Airing season dropdown -->
  <rect x="580" y="287" width="90" height="26" rx="6" fill="#0f0f14" stroke="#2d2d3f" stroke-width="1"/>
  <text x="592" y="305" font-size="11" fill="#94a3b8">Summer</text>
  <text x="658" y="305" font-size="9" fill="#64748b">&#x25BC;</text>

  <!-- Inline edit: Year input -->
  <rect x="680" y="287" width="60" height="26" rx="6" fill="#0f0f14" stroke="#2d2d3f" stroke-width="1"/>
  <text x="692" y="305" font-size="11" fill="#94a3b8">2017</text>

  <!-- Image count -->
  <text x="800" y="306" font-size="12" fill="#94a3b8">94</text>

  <!-- Save / Cancel for inline edit -->
  <rect x="1020" y="288" width="52" height="26" rx="6" fill="#818cf8"/>
  <text x="1046" y="306" font-size="11" fill="#fff" text-anchor="middle" font-weight="500">Save</text>

  <rect x="1080" y="288" width="60" height="26" rx="6" fill="#1e1e2e" stroke="#2d2d3f" stroke-width="1"/>
  <text x="1110" y="306" font-size="11" fill="#94a3b8" text-anchor="middle">Cancel</text>

  <!-- Editing indicator label -->
  <rect x="1170" y="288" width="72" height="26" rx="6" fill="#312e81"/>
  <text x="1206" y="306" font-size="10" fill="#818cf8" text-anchor="middle">Editing</text>

  <!-- ==================== Entry Row 3: Season 3 ==================== -->
  <rect x="160" y="330" width="1120" height="48" fill="#16161e"/>
  <line x1="160" y1="378" x2="1280" y2="378" stroke="#2d2d3f" stroke-width="0.5"/>

  <!-- Expand arrow (expanded) -->
  <text x="172" y="360" font-size="11" fill="#818cf8">&#x25BC;</text>

  <!-- Type badge (S3) -->
  <rect x="192" y="343" width="32" height="20" rx="4" fill="#312e81"/>
  <text x="208" y="357" font-size="10" fill="#818cf8" text-anchor="middle" font-weight="600">S3</text>

  <!-- Entry name -->
  <text x="270" y="360" font-size="13" fill="#f1f5f9">Season 3</text>

  <!-- Airing info -->
  <text x="620" y="360" font-size="12" fill="#94a3b8">Summer 2018</text>

  <!-- Image count -->
  <text x="800" y="360" font-size="12" fill="#94a3b8">68</text>

  <!-- Upload button -->
  <rect x="1020" y="342" width="64" height="26" rx="6" fill="#1e1e2e" stroke="#2d2d3f" stroke-width="1"/>
  <text x="1052" y="360" font-size="11" fill="#94a3b8" text-anchor="middle">Upload</text>

  <!-- Delete button -->
  <rect x="1092" y="342" width="56" height="26" rx="6" fill="#1e1e2e" stroke="#2d2d3f" stroke-width="1"/>
  <text x="1120" y="360" font-size="11" fill="#ef4444" text-anchor="middle">Delete</text>

  <!-- ==================== Sub-entry: Season 3 Part 1 (indented) ==================== -->
  <rect x="200" y="378" width="1080" height="40" fill="#1a1a26"/>
  <line x1="200" y1="418" x2="1280" y2="418" stroke="#2d2d3f" stroke-width="0.5"/>

  <!-- Indent connector -->
  <line x1="214" y1="378" x2="214" y2="418" stroke="#2d2d3f" stroke-width="1"/>
  <line x1="214" y1="398" x2="230" y2="398" stroke="#2d2d3f" stroke-width="1"/>

  <!-- Sub-entry badge -->
  <rect x="236" y="388" width="24" height="16" rx="3" fill="#1e1e2e" stroke="#2d2d3f" stroke-width="1"/>
  <text x="248" y="400" font-size="9" fill="#64748b" text-anchor="middle">P1</text>

  <text x="270" y="403" font-size="12" fill="#94a3b8">Part 1</text>
  <text x="620" y="403" font-size="11" fill="#64748b">Summer 2018</text>
  <text x="800" y="403" font-size="11" fill="#64748b">34</text>

  <!-- Sub-entry actions -->
  <rect x="1020" y="386" width="64" height="22" rx="5" fill="#1e1e2e" stroke="#2d2d3f" stroke-width="1"/>
  <text x="1052" y="401" font-size="10" fill="#94a3b8" text-anchor="middle">Upload</text>
  <rect x="1092" y="386" width="56" height="22" rx="5" fill="#1e1e2e" stroke="#2d2d3f" stroke-width="1"/>
  <text x="1120" y="401" font-size="10" fill="#ef4444" text-anchor="middle">Delete</text>

  <!-- ==================== Sub-entry: Season 3 Part 2 (indented) ==================== -->
  <rect x="200" y="418" width="1080" height="40" fill="#16161e"/>
  <line x1="200" y1="458" x2="1280" y2="458" stroke="#2d2d3f" stroke-width="0.5"/>

  <!-- Indent connector -->
  <line x1="214" y1="418" x2="214" y2="440" stroke="#2d2d3f" stroke-width="1"/>
  <line x1="214" y1="440" x2="230" y2="440" stroke="#2d2d3f" stroke-width="1"/>

  <!-- Sub-entry badge -->
  <rect x="236" y="428" width="24" height="16" rx="3" fill="#1e1e2e" stroke="#2d2d3f" stroke-width="1"/>
  <text x="248" y="440" font-size="9" fill="#64748b" text-anchor="middle">P2</text>

  <text x="270" y="443" font-size="12" fill="#94a3b8">Part 2</text>
  <text x="620" y="443" font-size="11" fill="#64748b">Winter 2019</text>
  <text x="800" y="443" font-size="11" fill="#64748b">34</text>

  <!-- Sub-entry actions -->
  <rect x="1020" y="426" width="64" height="22" rx="5" fill="#1e1e2e" stroke="#2d2d3f" stroke-width="1"/>
  <text x="1052" y="441" font-size="10" fill="#94a3b8" text-anchor="middle">Upload</text>
  <rect x="1092" y="426" width="56" height="22" rx="5" fill="#1e1e2e" stroke="#2d2d3f" stroke-width="1"/>
  <text x="1120" y="441" font-size="10" fill="#ef4444" text-anchor="middle">Delete</text>

  <!-- Add sub-entry button -->
  <rect x="236" y="462" width="120" height="24" rx="6" fill="#1e1e2e" stroke="#2d2d3f" stroke-width="1" stroke-dasharray="3,3"/>
  <text x="296" y="478" font-size="11" fill="#64748b" text-anchor="middle">+ Sub-entry</text>

  <!-- ==================== Entry Row 4: Season 4 (Final Season) ==================== -->
  <rect x="160" y="494" width="1120" height="48" fill="#16161e"/>
  <line x1="160" y1="542" x2="1280" y2="542" stroke="#2d2d3f" stroke-width="0.5"/>

  <!-- Expand arrow -->
  <text x="172" y="524" font-size="11" fill="#64748b">&#x25B6;</text>

  <!-- Type badge (S4) -->
  <rect x="192" y="507" width="32" height="20" rx="4" fill="#312e81"/>
  <text x="208" y="521" font-size="10" fill="#818cf8" text-anchor="middle" font-weight="600">S4</text>

  <!-- Entry name -->
  <text x="270" y="524" font-size="13" fill="#f1f5f9">Season 4 (Final Season)</text>

  <!-- Airing info -->
  <text x="620" y="524" font-size="12" fill="#94a3b8">Winter 2021</text>

  <!-- Image count -->
  <text x="800" y="524" font-size="12" fill="#94a3b8">93</text>

  <!-- Upload button -->
  <rect x="1020" y="506" width="64" height="26" rx="6" fill="#1e1e2e" stroke="#2d2d3f" stroke-width="1"/>
  <text x="1052" y="524" font-size="11" fill="#94a3b8" text-anchor="middle">Upload</text>

  <!-- Delete button -->
  <rect x="1092" y="506" width="56" height="26" rx="6" fill="#1e1e2e" stroke="#2d2d3f" stroke-width="1"/>
  <text x="1120" y="524" font-size="11" fill="#ef4444" text-anchor="middle">Delete</text>

  <!-- ==================== Entry Row 5: Movie ==================== -->
  <rect x="160" y="542" width="1120" height="48" fill="#16161e"/>
  <line x1="160" y1="590" x2="1280" y2="590" stroke="#2d2d3f" stroke-width="0.5"/>

  <!-- No expand arrow for movie -->
  <text x="172" y="572" font-size="11" fill="#2d2d3f">&#x25B6;</text>

  <!-- Type badge (M) -->
  <rect x="192" y="555" width="32" height="20" rx="4" fill="#3b1a1a"/>
  <text x="208" y="569" font-size="10" fill="#fca5a5" text-anchor="middle" font-weight="600">M</text>

  <!-- Entry name -->
  <text x="270" y="572" font-size="13" fill="#f1f5f9">Chronicle</text>

  <!-- Airing info -->
  <text x="620" y="572" font-size="12" fill="#94a3b8">2020</text>

  <!-- Image count -->
  <text x="800" y="572" font-size="12" fill="#94a3b8">12</text>

  <!-- Upload button -->
  <rect x="1020" y="554" width="64" height="26" rx="6" fill="#1e1e2e" stroke="#2d2d3f" stroke-width="1"/>
  <text x="1052" y="572" font-size="11" fill="#94a3b8" text-anchor="middle">Upload</text>

  <!-- Delete button -->
  <rect x="1092" y="554" width="56" height="26" rx="6" fill="#1e1e2e" stroke="#2d2d3f" stroke-width="1"/>
  <text x="1120" y="572" font-size="11" fill="#ef4444" text-anchor="middle">Delete</text>

  <!-- ==================== ADD ENTRY FORM ==================== -->
  <rect x="160" y="600" width="1120" height="100" rx="8" fill="#1a1a26" stroke="#2d2d3f" stroke-width="1" stroke-dasharray="4,4"/>

  <text x="184" y="624" font-size="12" fill="#818cf8" font-weight="500">+ Add New Entry</text>

  <!-- Type selector -->
  <text x="184" y="648" font-size="11" fill="#64748b">Type</text>
  <rect x="214" y="636" width="80" height="26" rx="6" fill="#818cf8"/>
  <text x="254" y="654" font-size="11" fill="#fff" text-anchor="middle" font-weight="500">Season</text>
  <rect x="300" y="636" width="64" height="26" rx="6" fill="#1e1e2e" stroke="#2d2d3f" stroke-width="1"/>
  <text x="332" y="654" font-size="11" fill="#64748b" text-anchor="middle">Movie</text>
  <rect x="370" y="636" width="60" height="26" rx="6" fill="#1e1e2e" stroke="#2d2d3f" stroke-width="1"/>
  <text x="400" y="654" font-size="11" fill="#64748b" text-anchor="middle">Other</text>

  <!-- Season number (conditional field shown for Season type) -->
  <text x="460" y="648" font-size="11" fill="#64748b">Season #</text>
  <rect x="520" y="636" width="48" height="26" rx="6" fill="#0f0f14" stroke="#2d2d3f" stroke-width="1"/>
  <text x="536" y="654" font-size="11" fill="#94a3b8">5</text>

  <!-- Airing season -->
  <text x="590" y="648" font-size="11" fill="#64748b">Airing</text>
  <rect x="630" y="636" width="90" height="26" rx="6" fill="#0f0f14" stroke="#2d2d3f" stroke-width="1"/>
  <text x="642" y="654" font-size="11" fill="#64748b">Select...</text>
  <text x="708" y="654" font-size="9" fill="#64748b">&#x25BC;</text>

  <!-- Year -->
  <text x="740" y="648" font-size="11" fill="#64748b">Year</text>
  <rect x="770" y="636" width="60" height="26" rx="6" fill="#0f0f14" stroke="#2d2d3f" stroke-width="1"/>
  <text x="782" y="654" font-size="11" fill="#64748b">2025</text>

  <!-- Add button -->
  <rect x="860" y="636" width="80" height="26" rx="6" fill="#818cf8"/>
  <text x="900" y="654" font-size="11" fill="#fff" text-anchor="middle" font-weight="500">Add Entry</text>

  <!-- ==================== DIALOG FOOTER ==================== -->
  <rect x="144" y="770" width="1152" height="40" rx="0" fill="#1a1a26"/>
  <!-- Fix bottom corners -->
  <rect x="144" y="770" width="1152" height="24" fill="#1a1a26"/>
  <rect x="144" y="786" width="1152" height="24" rx="16" fill="#1a1a26"/>
  <text x="176" y="796" font-size="11" fill="#64748b">5 entries -- 354 total images</text>

  <!-- Annotation -->
  <text x="720" y="893" class="label" text-anchor="middle">Manage Dialog -- Entries tab: list with type badges, inline editing (row 2), expandable sub-entries (row 3), add form at bottom</text>
</svg>