<svg viewBox="0 0 1440 900" xmlns="http://www.w3.org/2000/svg">
  <defs>
    <style>
      text { font-family: -apple-system, BlinkMacSystemFont, 'Inter', sans-serif; }
      .label { font-size: 11px; fill: #555; }
    </style>
  </defs>

  <!-- Background -->
  <rect width="1440" height="900" fill="#0f0f14"/>

  <!-- Icon rail (64px) -->
  <rect x="0" y="0" width="64" height="900" fill="#16161e"/>
  <rect x="12" y="14" width="40" height="40" rx="10" fill="#818cf8"/>
  <text x="32" y="40" font-size="20" fill="#fff" font-weight="700" text-anchor="middle">A</text>
  <g transform="translate(0, 72)">
    <rect x="6" y="0" width="52" height="52" rx="10" fill="#1e1e2e"/>
    <text x="32" y="68" font-size="11" fill="#818cf8" text-anchor="middle" font-weight="500">Home</text>
  </g>

  <!-- ==================== CLEAN HEADER ==================== -->
  <rect x="64" y="0" width="1376" height="72" fill="#16161e"/>

  <!-- Breadcrumb -->
  <text x="84" y="20" font-size="12" fill="#818cf8">Home</text>
  <text x="118" y="20" font-size="12" fill="#475569">/</text>

  <!-- Anime title and metadata -->
  <text x="84" y="46" font-size="20" fill="#f1f5f9" font-weight="700">Attack on Titan</text>
  <text x="290" y="46" font-size="12" fill="#64748b">4 entries</text>
  <text x="290" y="60" font-size="11" fill="#475569">342 images</text>

  <!-- Action buttons (right) -- Manage replaces scattered buttons -->
  <rect x="1196" y="14" width="80" height="28" rx="8" fill="#818cf8"/>
  <text x="1236" y="33" font-size="12" fill="#fff" text-anchor="middle" font-weight="500">Manage</text>

  <rect x="1286" y="14" width="70" height="28" rx="8" fill="#1e1e2e" stroke="#2d2d3f" stroke-width="1"/>
  <text x="1321" y="33" font-size="12" fill="#94a3b8" text-anchor="middle">Upload</text>

  <rect x="1366" y="14" width="36" height="28" rx="8" fill="#1e1e2e" stroke="#2d2d3f" stroke-width="1"/>
  <text x="1384" y="33" font-size="12" fill="#94a3b8" text-anchor="middle">...</text>

  <!-- ==================== ENTRY FILTER ROW ==================== -->
  <rect x="64" y="72" width="1376" height="38" fill="#0f0f14"/>

  <!-- Entry tabs (compact, underlined style) -->
  <text x="84" y="97" font-size="13" fill="#818cf8" font-weight="600">All</text>
  <rect x="84" y="102" width="20" height="2" rx="1" fill="#818cf8"/>

  <text x="120" y="97" font-size="13" fill="#94a3b8">Season 1</text>

  <!-- Season 2 tab (RIGHT-CLICKED -- highlighted) -->
  <rect x="184" y="78" width="64" height="28" rx="6" fill="#1e1e2e"/>
  <text x="190" y="97" font-size="13" fill="#f1f5f9" font-weight="500">Season 2</text>

  <text x="260" y="97" font-size="13" fill="#94a3b8">Season 3</text>
  <text x="340" y="97" font-size="13" fill="#94a3b8">Season 4 (Final)</text>

  <!-- Divider -->
  <text x="460" y="97" font-size="13" fill="#2d2d3f">|</text>

  <!-- Toolbar -->
  <rect x="480" y="82" width="100" height="24" rx="12" fill="#1e1e2e" stroke="#2d2d3f" stroke-width="1"/>
  <text x="496" y="98" font-size="11" fill="#64748b">Tag filter +</text>

  <rect x="590" y="82" width="120" height="24" rx="12" fill="#1e1e2e" stroke="#2d2d3f" stroke-width="1"/>
  <text x="606" y="98" font-size="11" fill="#64748b">Sort: Date added</text>

  <!-- View/Select toggle -->
  <rect x="1302" y="82" width="54" height="24" rx="6" fill="#818cf8"/>
  <text x="1329" y="98" font-size="11" fill="#fff" text-anchor="middle">View</text>
  <rect x="1356" y="82" width="54" height="24" rx="6" fill="#1e1e2e" stroke="#2d2d3f" stroke-width="1"/>
  <text x="1383" y="98" font-size="11" fill="#64748b" text-anchor="middle">Select</text>

  <text x="1240" y="98" font-size="11" fill="#475569" text-anchor="end">342 images</text>

  <!-- ==================== CONTEXT MENU (floating, below Season 2 tab) ==================== -->
  <g>
    <!-- Shadow effect -->
    <rect x="183" y="108" width="180" height="156" rx="10" fill="#000" opacity="0.4"/>

    <!-- Menu background -->
    <rect x="180" y="106" width="180" height="156" rx="10" fill="#1e1e2e" stroke="#2d2d3f" stroke-width="1"/>

    <!-- Menu item 1: Upload Images -->
    <rect x="184" y="112" width="172" height="34" rx="6" fill="transparent"/>
    <g>
      <!-- Upload icon placeholder -->
      <rect x="196" y="121" width="14" height="14" rx="2" fill="none" stroke="#94a3b8" stroke-width="1"/>
      <line x1="203" y1="125" x2="203" y2="131" stroke="#94a3b8" stroke-width="1"/>
      <line x1="200" y1="128" x2="206" y2="128" stroke="#94a3b8" stroke-width="1"/>
    </g>
    <text x="220" y="134" font-size="12" fill="#f1f5f9">Upload Images</text>

    <!-- Divider -->
    <line x1="192" y1="148" x2="352" y2="148" stroke="#2d2d3f" stroke-width="0.5"/>

    <!-- Menu item 2: Edit Entry (hover state) -->
    <rect x="184" y="150" width="172" height="34" rx="6" fill="#2d2d3f"/>
    <g>
      <!-- Edit icon placeholder -->
      <rect x="196" y="159" width="14" height="14" rx="2" fill="none" stroke="#f1f5f9" stroke-width="1"/>
      <line x1="199" y1="170" x2="207" y2="162" stroke="#f1f5f9" stroke-width="1"/>
    </g>
    <text x="220" y="172" font-size="12" fill="#f1f5f9">Edit Entry</text>
    <text x="340" y="172" font-size="10" fill="#64748b" text-anchor="end">E</text>

    <!-- Divider -->
    <line x1="192" y1="186" x2="352" y2="186" stroke="#2d2d3f" stroke-width="0.5"/>

    <!-- Menu item 3: Add Sub-entry -->
    <rect x="184" y="188" width="172" height="34" rx="6" fill="transparent"/>
    <g>
      <!-- Sub-entry icon -->
      <rect x="196" y="197" width="14" height="14" rx="2" fill="none" stroke="#94a3b8" stroke-width="1"/>
      <text x="203" y="208" font-size="11" fill="#94a3b8" text-anchor="middle">+</text>
    </g>
    <text x="220" y="210" font-size="12" fill="#f1f5f9">Add Sub-entry</text>

    <!-- Divider -->
    <line x1="192" y1="224" x2="352" y2="224" stroke="#2d2d3f" stroke-width="0.5"/>

    <!-- Menu item 4: Delete Entry (danger) -->
    <rect x="184" y="226" width="172" height="34" rx="6" fill="transparent"/>
    <g>
      <!-- Trash icon placeholder -->
      <rect x="196" y="235" width="14" height="14" rx="2" fill="none" stroke="#ef4444" stroke-width="1"/>
      <line x1="194" y1="238" x2="212" y2="238" stroke="#ef4444" stroke-width="1"/>
    </g>
    <text x="220" y="248" font-size="12" fill="#ef4444">Delete Entry</text>
  </g>

  <!-- ==================== IMAGE GRID (behind context menu, slightly dimmed) ==================== -->
  <!-- Row 1 -->
  <g transform="translate(84, 120)">
    <rect width="260" height="174" rx="8" fill="#312e81"/>
    <text x="130" y="92" font-size="12" fill="#818cf8" text-anchor="middle" opacity="0.7">Image</text>
  </g>
  <g transform="translate(354, 120)">
    <rect width="260" height="210" rx="8" fill="#831843"/>
    <text x="130" y="110" font-size="12" fill="#f9a8d4" text-anchor="middle" opacity="0.7">Image</text>
  </g>
  <g transform="translate(624, 120)">
    <rect width="260" height="160" rx="8" fill="#14532d"/>
    <text x="130" y="84" font-size="12" fill="#6ee7b7" text-anchor="middle" opacity="0.7">Image</text>
  </g>
  <g transform="translate(894, 120)">
    <rect width="260" height="194" rx="8" fill="#713f12"/>
    <text x="130" y="102" font-size="12" fill="#fcd34d" text-anchor="middle" opacity="0.7">Image</text>
  </g>
  <g transform="translate(1164, 120)">
    <rect width="260" height="174" rx="8" fill="#3b0764"/>
    <text x="130" y="92" font-size="12" fill="#c4b5fd" text-anchor="middle" opacity="0.7">Image</text>
  </g>

  <!-- Row 2 (masonry offset) -->
  <g transform="translate(84, 304)">
    <rect width="260" height="200" rx="8" fill="#1c1917"/>
    <text x="130" y="104" font-size="12" fill="#a8a29e" text-anchor="middle" opacity="0.7">Image</text>
  </g>
  <g transform="translate(354, 340)">
    <rect width="260" height="174" rx="8" fill="#881337"/>
    <text x="130" y="92" font-size="12" fill="#fb7185" text-anchor="middle" opacity="0.7">Image</text>
  </g>
  <g transform="translate(624, 290)">
    <rect width="260" height="220" rx="8" fill="#134e4a"/>
    <text x="130" y="114" font-size="12" fill="#5eead4" text-anchor="middle" opacity="0.7">Image</text>
  </g>
  <g transform="translate(894, 324)">
    <rect width="260" height="180" rx="8" fill="#7f1d1d"/>
    <text x="130" y="94" font-size="12" fill="#fca5a5" text-anchor="middle" opacity="0.7">Image</text>
  </g>
  <g transform="translate(1164, 304)">
    <rect width="260" height="200" rx="8" fill="#1e3a5f"/>
    <text x="130" y="104" font-size="12" fill="#7dd3fc" text-anchor="middle" opacity="0.7">Image</text>
  </g>

  <!-- Row 3 -->
  <g transform="translate(84, 514)">
    <rect width="260" height="174" rx="8" fill="#4a1d96"/>
    <text x="130" y="92" font-size="12" fill="#a78bfa" text-anchor="middle" opacity="0.7">Image</text>
  </g>
  <g transform="translate(354, 524)">
    <rect width="260" height="194" rx="8" fill="#365314"/>
    <text x="130" y="102" font-size="12" fill="#a3e635" text-anchor="middle" opacity="0.7">Image</text>
  </g>
  <g transform="translate(624, 520)">
    <rect width="260" height="174" rx="8" fill="#312e81"/>
    <text x="130" y="92" font-size="12" fill="#818cf8" text-anchor="middle" opacity="0.7">Image</text>
  </g>
  <g transform="translate(894, 514)">
    <rect width="260" height="210" rx="8" fill="#831843"/>
    <text x="130" y="110" font-size="12" fill="#f9a8d4" text-anchor="middle" opacity="0.7">Image</text>
  </g>
  <g transform="translate(1164, 514)">
    <rect width="260" height="160" rx="8" fill="#78350f"/>
    <text x="130" y="84" font-size="12" fill="#fbbf24" text-anchor="middle" opacity="0.7">Image</text>
  </g>

  <!-- Row 4 (partial) -->
  <g transform="translate(84, 698)">
    <rect width="260" height="194" rx="8" fill="#14532d"/>
  </g>
  <g transform="translate(354, 728)">
    <rect width="260" height="174" rx="8" fill="#713f12"/>
  </g>
  <g transform="translate(624, 704)">
    <rect width="260" height="194" rx="8" fill="#1c1917"/>
  </g>
  <g transform="translate(894, 734)">
    <rect width="260" height="170" rx="8" fill="#3b0764"/>
  </g>
  <g transform="translate(1164, 684)">
    <rect width="260" height="210" rx="8" fill="#881337"/>
  </g>

  <!-- ==================== CURSOR INDICATOR ==================== -->
  <!-- Small cursor icon near the context menu to indicate right-click -->
  <g transform="translate(215, 100)">
    <polygon points="0,0 0,14 4,11 7,18 9,17 6,10 11,10" fill="#f1f5f9" stroke="#0f0f14" stroke-width="0.5"/>
  </g>

  <!-- Annotation -->
  <text x="752" y="893" class="label" text-anchor="middle">Anime Detail with right-click context menu on entry tab -- Shows Upload, Edit, Add Sub-entry, Delete -- Header has "Manage" button</text>
</svg>