<svg viewBox="0 0 1440 900" xmlns="http://www.w3.org/2000/svg">
  <defs>
    <style>
      text { font-family: -apple-system, BlinkMacSystemFont, 'Inter', sans-serif; }
      .label { font-size: 11px; fill: #555; }
    </style>
  </defs>

  <!-- Background -->
  <rect width="1440" height="900" fill="#0f0f14"/>

  <!-- Icon rail (64px) -->
  <rect x="0" y="0" width="64" height="900" fill="#16161e"/>
  <rect x="12" y="14" width="40" height="40" rx="10" fill="#818cf8"/>
  <text x="32" y="40" font-size="20" fill="#fff" font-weight="700" text-anchor="middle">A</text>
  <!-- Tags (active) -->
  <g transform="translate(0, 240)">
    <rect x="6" y="0" width="52" height="52" rx="10" fill="#1e1e2e"/>
    <text x="32" y="68" font-size="11" fill="#818cf8" text-anchor="middle" font-weight="500">Tags</text>
  </g>

  <!-- ==================== HEADER ==================== -->
  <rect x="64" y="0" width="1376" height="52" fill="#16161e"/>
  <text x="84" y="22" font-size="18" fill="#f1f5f9" font-weight="700">Tags</text>
  <text x="84" y="40" font-size="11" fill="#64748b">32 tags</text>

  <!-- Search and create -->
  <rect x="600" y="12" width="400" height="28" rx="14" fill="#1e1e2e" stroke="#2d2d3f" stroke-width="1"/>
  <text x="624" y="31" font-size="12" fill="#475569">Search tags...</text>

  <rect x="1290" y="12" width="100" height="28" rx="8" fill="#818cf8"/>
  <text x="1340" y="31" font-size="12" fill="#fff" text-anchor="middle" font-weight="500">+ New Tag</text>

  <!-- ==================== TAG CARDS (real tags only, no characters!) ==================== -->
  <!-- Tags are: Outdoor, Indoor, Action, Romance, Comedy, School, City, Forest, Battle, Sunset, Night, Rain, etc. -->

  <!-- Row 1 -->
  <g transform="translate(84, 64)">
    <rect width="252" height="120" rx="10" fill="#1e1e2e" stroke="#2d2d3f" stroke-width="1"/>
    <!-- Preview images (4 thumbnails at top) -->
    <rect x="0" y="0" width="63" height="56" rx="10" fill="#14532d"/>
    <rect x="63" y="0" width="63" height="56" fill="#312e81"/>
    <rect x="126" y="0" width="63" height="56" fill="#831843"/>
    <rect x="189" y="0" width="63" height="56" rx="10" fill="#713f12"/>
    <rect x="186" y="0" width="3" height="56" fill="#713f12"/>
    <!-- Tag info -->
    <text x="12" y="80" font-size="14" fill="#f1f5f9" font-weight="600">Outdoor</text>
    <text x="12" y="98" font-size="11" fill="#64748b">124 images -- 8 anime</text>
    <rect x="192" y="68" width="48" height="24" rx="6" fill="#1e1e2e" stroke="#2d2d3f" stroke-width="1"/>
    <text x="216" y="85" font-size="10" fill="#94a3b8" text-anchor="middle">Edit</text>
  </g>

  <g transform="translate(350, 64)">
    <rect width="252" height="120" rx="10" fill="#1e1e2e" stroke="#2d2d3f" stroke-width="1"/>
    <rect x="0" y="0" width="63" height="56" rx="10" fill="#312e81"/>
    <rect x="63" y="0" width="63" height="56" fill="#1e3a5f"/>
    <rect x="126" y="0" width="63" height="56" fill="#4a1d96"/>
    <rect x="189" y="0" width="63" height="56" rx="10" fill="#134e4a"/>
    <text x="12" y="80" font-size="14" fill="#f1f5f9" font-weight="600">Indoor</text>
    <text x="12" y="98" font-size="11" fill="#64748b">98 images -- 7 anime</text>
    <rect x="192" y="68" width="48" height="24" rx="6" fill="#1e1e2e" stroke="#2d2d3f" stroke-width="1"/>
    <text x="216" y="85" font-size="10" fill="#94a3b8" text-anchor="middle">Edit</text>
  </g>

  <g transform="translate(616, 64)">
    <rect width="252" height="120" rx="10" fill="#1e1e2e" stroke="#2d2d3f" stroke-width="1"/>
    <rect x="0" y="0" width="63" height="56" rx="10" fill="#831843"/>
    <rect x="63" y="0" width="63" height="56" fill="#7f1d1d"/>
    <rect x="126" y="0" width="63" height="56" fill="#713f12"/>
    <rect x="189" y="0" width="63" height="56" rx="10" fill="#312e81"/>
    <text x="12" y="80" font-size="14" fill="#f1f5f9" font-weight="600">Action</text>
    <text x="12" y="98" font-size="11" fill="#64748b">156 images -- 10 anime</text>
    <rect x="192" y="68" width="48" height="24" rx="6" fill="#1e1e2e" stroke="#2d2d3f" stroke-width="1"/>
    <text x="216" y="85" font-size="10" fill="#94a3b8" text-anchor="middle">Edit</text>
  </g>

  <g transform="translate(882, 64)">
    <rect width="252" height="120" rx="10" fill="#1e1e2e" stroke="#2d2d3f" stroke-width="1"/>
    <rect x="0" y="0" width="63" height="56" rx="10" fill="#831843"/>
    <rect x="63" y="0" width="63" height="56" fill="#3b0764"/>
    <rect x="126" y="0" width="126" height="56" rx="10" fill="#1c1917"/>
    <text x="12" y="80" font-size="14" fill="#f1f5f9" font-weight="600">Romance</text>
    <text x="12" y="98" font-size="11" fill="#64748b">42 images -- 4 anime</text>
    <rect x="192" y="68" width="48" height="24" rx="6" fill="#1e1e2e" stroke="#2d2d3f" stroke-width="1"/>
    <text x="216" y="85" font-size="10" fill="#94a3b8" text-anchor="middle">Edit</text>
  </g>

  <g transform="translate(1148, 64)">
    <rect width="252" height="120" rx="10" fill="#1e1e2e" stroke="#2d2d3f" stroke-width="1"/>
    <rect x="0" y="0" width="63" height="56" rx="10" fill="#14532d"/>
    <rect x="63" y="0" width="63" height="56" fill="#365314"/>
    <rect x="126" y="0" width="63" height="56" fill="#134e4a"/>
    <rect x="189" y="0" width="63" height="56" rx="10" fill="#1e3a5f"/>
    <text x="12" y="80" font-size="14" fill="#f1f5f9" font-weight="600">Comedy</text>
    <text x="12" y="98" font-size="11" fill="#64748b">67 images -- 5 anime</text>
    <rect x="192" y="68" width="48" height="24" rx="6" fill="#1e1e2e" stroke="#2d2d3f" stroke-width="1"/>
    <text x="216" y="85" font-size="10" fill="#94a3b8" text-anchor="middle">Edit</text>
  </g>

  <!-- Row 2 -->
  <g transform="translate(84, 198)">
    <rect width="252" height="120" rx="10" fill="#1e1e2e" stroke="#2d2d3f" stroke-width="1"/>
    <rect x="0" y="0" width="63" height="56" rx="10" fill="#1e3a5f"/>
    <rect x="63" y="0" width="63" height="56" fill="#312e81"/>
    <rect x="126" y="0" width="126" height="56" rx="10" fill="#4a1d96"/>
    <text x="12" y="80" font-size="14" fill="#f1f5f9" font-weight="600">School</text>
    <text x="12" y="98" font-size="11" fill="#64748b">89 images -- 6 anime</text>
    <rect x="192" y="68" width="48" height="24" rx="6" fill="#1e1e2e" stroke="#2d2d3f" stroke-width="1"/>
    <text x="216" y="85" font-size="10" fill="#94a3b8" text-anchor="middle">Edit</text>
  </g>

  <g transform="translate(350, 198)">
    <rect width="252" height="120" rx="10" fill="#1e1e2e" stroke="#2d2d3f" stroke-width="1"/>
    <rect x="0" y="0" width="126" height="56" rx="10" fill="#713f12"/>
    <rect x="126" y="0" width="126" height="56" rx="10" fill="#881337"/>
    <text x="12" y="80" font-size="14" fill="#f1f5f9" font-weight="600">City</text>
    <text x="12" y="98" font-size="11" fill="#64748b">67 images -- 5 anime</text>
    <rect x="192" y="68" width="48" height="24" rx="6" fill="#1e1e2e" stroke="#2d2d3f" stroke-width="1"/>
    <text x="216" y="85" font-size="10" fill="#94a3b8" text-anchor="middle">Edit</text>
  </g>

  <g transform="translate(616, 198)">
    <rect width="252" height="120" rx="10" fill="#1e1e2e" stroke="#2d2d3f" stroke-width="1"/>
    <rect x="0" y="0" width="252" height="56" rx="10" fill="#14532d"/>
    <text x="12" y="80" font-size="14" fill="#f1f5f9" font-weight="600">Forest</text>
    <text x="12" y="98" font-size="11" fill="#64748b">34 images -- 3 anime</text>
    <rect x="192" y="68" width="48" height="24" rx="6" fill="#1e1e2e" stroke="#2d2d3f" stroke-width="1"/>
    <text x="216" y="85" font-size="10" fill="#94a3b8" text-anchor="middle">Edit</text>
  </g>

  <g transform="translate(882, 198)">
    <rect width="252" height="120" rx="10" fill="#1e1e2e" stroke="#2d2d3f" stroke-width="1"/>
    <rect x="0" y="0" width="252" height="56" rx="10" fill="#7f1d1d"/>
    <text x="12" y="80" font-size="14" fill="#f1f5f9" font-weight="600">Battle</text>
    <text x="12" y="98" font-size="11" fill="#64748b">112 images -- 8 anime</text>
    <rect x="192" y="68" width="48" height="24" rx="6" fill="#1e1e2e" stroke="#2d2d3f" stroke-width="1"/>
    <text x="216" y="85" font-size="10" fill="#94a3b8" text-anchor="middle">Edit</text>
  </g>

  <g transform="translate(1148, 198)">
    <rect width="252" height="120" rx="10" fill="#1e1e2e" stroke="#2d2d3f" stroke-width="1"/>
    <rect x="0" y="0" width="252" height="56" rx="10" fill="#78350f"/>
    <text x="12" y="80" font-size="14" fill="#f1f5f9" font-weight="600">Sunset</text>
    <text x="12" y="98" font-size="11" fill="#64748b">28 images -- 4 anime</text>
    <rect x="192" y="68" width="48" height="24" rx="6" fill="#1e1e2e" stroke="#2d2d3f" stroke-width="1"/>
    <text x="216" y="85" font-size="10" fill="#94a3b8" text-anchor="middle">Edit</text>
  </g>

  <!-- Row 3 -->
  <g transform="translate(84, 332)">
    <rect width="252" height="120" rx="10" fill="#1e1e2e" stroke="#2d2d3f" stroke-width="1"/>
    <rect x="0" y="0" width="252" height="56" rx="10" fill="#1c1917"/>
    <text x="12" y="80" font-size="14" fill="#f1f5f9" font-weight="600">Night</text>
    <text x="12" y="98" font-size="11" fill="#64748b">56 images -- 6 anime</text>
    <rect x="192" y="68" width="48" height="24" rx="6" fill="#1e1e2e" stroke="#2d2d3f" stroke-width="1"/>
    <text x="216" y="85" font-size="10" fill="#94a3b8" text-anchor="middle">Edit</text>
  </g>

  <g transform="translate(350, 332)">
    <rect width="252" height="120" rx="10" fill="#1e1e2e" stroke="#2d2d3f" stroke-width="1"/>
    <rect x="0" y="0" width="252" height="56" rx="10" fill="#1e3a5f"/>
    <text x="12" y="80" font-size="14" fill="#f1f5f9" font-weight="600">Rain</text>
    <text x="12" y="98" font-size="11" fill="#64748b">19 images -- 3 anime</text>
    <rect x="192" y="68" width="48" height="24" rx="6" fill="#1e1e2e" stroke="#2d2d3f" stroke-width="1"/>
    <text x="216" y="85" font-size="10" fill="#94a3b8" text-anchor="middle">Edit</text>
  </g>

  <g transform="translate(616, 332)">
    <rect width="252" height="120" rx="10" fill="#1e1e2e" stroke="#2d2d3f" stroke-width="1"/>
    <rect x="0" y="0" width="252" height="56" rx="10" fill="#3b0764"/>
    <text x="12" y="80" font-size="14" fill="#f1f5f9" font-weight="600">Fantasy</text>
    <text x="12" y="98" font-size="11" fill="#64748b">78 images -- 5 anime</text>
    <rect x="192" y="68" width="48" height="24" rx="6" fill="#1e1e2e" stroke="#2d2d3f" stroke-width="1"/>
    <text x="216" y="85" font-size="10" fill="#94a3b8" text-anchor="middle">Edit</text>
  </g>

  <g transform="translate(882, 332)">
    <rect width="252" height="120" rx="10" fill="#1e1e2e" stroke="#2d2d3f" stroke-width="1"/>
    <rect x="0" y="0" width="252" height="56" rx="10" fill="#365314"/>
    <text x="12" y="80" font-size="14" fill="#f1f5f9" font-weight="600">Slice of Life</text>
    <text x="12" y="98" font-size="11" fill="#64748b">45 images -- 3 anime</text>
    <rect x="192" y="68" width="48" height="24" rx="6" fill="#1e1e2e" stroke="#2d2d3f" stroke-width="1"/>
    <text x="216" y="85" font-size="10" fill="#94a3b8" text-anchor="middle">Edit</text>
  </g>

  <g transform="translate(1148, 332)">
    <rect width="252" height="120" rx="10" fill="#1e1e2e" stroke="#2d2d3f" stroke-width="1"/>
    <rect x="0" y="0" width="252" height="56" rx="10" fill="#134e4a"/>
    <text x="12" y="80" font-size="14" fill="#f1f5f9" font-weight="600">Beach</text>
    <text x="12" y="98" font-size="11" fill="#64748b">15 images -- 2 anime</text>
    <rect x="192" y="68" width="48" height="24" rx="6" fill="#1e1e2e" stroke="#2d2d3f" stroke-width="1"/>
    <text x="216" y="85" font-size="10" fill="#94a3b8" text-anchor="middle">Edit</text>
  </g>

  <!-- Annotation -->
  <text x="752" y="893" class="label" text-anchor="middle">Tag cards with preview images -- NO character names as tags -- Tags: Outdoor, Indoor, Action, Romance, School, City, etc.</text>
</svg>