<svg viewBox="0 0 3840 2160" xmlns="http://www.w3.org/2000/svg">
  <defs>
    <style>
      text { font-family: -apple-system, BlinkMacSystemFont, 'Inter', sans-serif; }
      .label { font-size: 22px; fill: #888; }
      .heading { font-size: 44px; fill: #f1f5f9; font-weight: 700; }
      .body { font-size: 24px; fill: #94a3b8; }
      .small { font-size: 20px; fill: #64748b; }
    </style>
  </defs>

  <!-- Background -->
  <rect width="3840" height="2160" fill="#0f0f14"/>

  <!-- Icon rail -->
  <rect x="0" y="0" width="80" height="2160" fill="#16161e"/>
  <rect x="16" y="20" width="48" height="48" rx="12" fill="#818cf8"/>
  <text x="40" y="52" font-size="28" fill="#fff" font-weight="700" text-anchor="middle">A</text>
  <!-- Settings active -->
  <g transform="translate(0, 570)">
    <rect x="8" y="0" width="64" height="64" rx="12" fill="#1e1e2e"/>
    <text x="40" y="84" font-size="18" fill="#818cf8" text-anchor="middle" font-weight="500">Settings</text>
  </g>

  <!-- ==================== CENTERED CONTENT (max 1400px) ==================== -->
  <text x="1520" y="80" class="heading" font-size="40" text-anchor="middle">Settings</text>

  <!-- Section tabs (horizontal, not left nav) -->
  <rect x="820" y="110" width="1400" height="56" rx="28" fill="#16161e"/>
  <rect x="828" y="116" width="200" height="44" rx="22" fill="#818cf8"/>
  <text x="928" y="146" font-size="22" fill="#fff" text-anchor="middle" font-weight="500">General</text>
  <rect x="1040" y="116" width="240" height="44" rx="22" fill="transparent"/>
  <text x="1160" y="146" font-size="22" fill="#64748b" text-anchor="middle">Appearance</text>
  <rect x="1292" y="116" width="200" height="44" rx="22" fill="transparent"/>
  <text x="1392" y="146" font-size="22" fill="#64748b" text-anchor="middle">Backup</text>
  <rect x="1504" y="116" width="160" height="44" rx="22" fill="transparent"/>
  <text x="1584" y="146" font-size="22" fill="#64748b" text-anchor="middle">About</text>

  <!-- General settings form -->
  <rect x="820" y="200" width="1400" height="800" rx="20" fill="#1e1e2e" stroke="#2d2d3f" stroke-width="1"/>

  <text x="872" y="260" font-size="28" fill="#f1f5f9" font-weight="600">Directories</text>

  <!-- Warning banner -->
  <rect x="872" y="280" width="1296" height="52" rx="12" fill="#3b2600" stroke="#f59e0b" stroke-width="1"/>
  <text x="904" y="312" font-size="20" fill="#fcd34d">Changing directories requires an app restart to take effect.</text>

  <!-- Image Root Directory -->
  <text x="872" y="376" font-size="22" fill="#94a3b8">Image Root Directory</text>
  <rect x="872" y="392" width="1000" height="52" rx="12" fill="#0f0f14" stroke="#2d2d3f" stroke-width="1"/>
  <text x="904" y="426" font-size="20" fill="#64748b">/home/user/anime-images/</text>
  <rect x="1888" y="392" width="140" height="52" rx="12" fill="#1e1e2e" stroke="#2d2d3f" stroke-width="1"/>
  <text x="1958" y="426" font-size="22" fill="#94a3b8" text-anchor="middle">Browse</text>

  <!-- Config Directory -->
  <text x="872" y="492" font-size="22" fill="#94a3b8">Config Directory</text>
  <rect x="872" y="508" width="1000" height="52" rx="12" fill="#0f0f14" stroke="#2d2d3f" stroke-width="1"/>
  <text x="904" y="542" font-size="20" fill="#64748b">/home/user/.config/animevault/</text>
  <rect x="1888" y="508" width="140" height="52" rx="12" fill="#1e1e2e" stroke="#2d2d3f" stroke-width="1"/>
  <text x="1958" y="542" font-size="22" fill="#94a3b8" text-anchor="middle">Browse</text>

  <!-- Log Directory -->
  <text x="872" y="608" font-size="22" fill="#94a3b8">Log Directory</text>
  <rect x="872" y="624" width="1000" height="52" rx="12" fill="#0f0f14" stroke="#2d2d3f" stroke-width="1"/>
  <text x="904" y="658" font-size="20" fill="#64748b">/home/user/.local/share/animevault/logs/</text>
  <rect x="1888" y="624" width="140" height="52" rx="12" fill="#1e1e2e" stroke="#2d2d3f" stroke-width="1"/>
  <text x="1958" y="658" font-size="22" fill="#94a3b8" text-anchor="middle">Browse</text>

  <!-- Backup Directory -->
  <text x="872" y="724" font-size="22" fill="#94a3b8">Backup Directory</text>
  <rect x="872" y="740" width="1000" height="52" rx="12" fill="#0f0f14" stroke="#2d2d3f" stroke-width="1"/>
  <text x="904" y="774" font-size="20" fill="#64748b">/home/user/backups/</text>
  <rect x="1888" y="740" width="140" height="52" rx="12" fill="#1e1e2e" stroke="#2d2d3f" stroke-width="1"/>
  <text x="1958" y="774" font-size="22" fill="#94a3b8" text-anchor="middle">Browse</text>

  <!-- Buttons -->
  <rect x="872" y="840" width="160" height="52" rx="12" fill="#818cf8"/>
  <text x="952" y="874" font-size="22" fill="#fff" text-anchor="middle" font-weight="500">Save</text>
  <rect x="1052" y="840" width="240" height="52" rx="12" fill="#1e1e2e" stroke="#2d2d3f" stroke-width="1"/>
  <text x="1172" y="874" font-size="22" fill="#94a3b8" text-anchor="middle">Reset to Defaults</text>

  <!-- Annotations -->
  <text x="1520" y="2140" class="label" text-anchor="middle">Settings with horizontal section tabs (not left nav) -- Centered form -- Browse buttons for native file dialog</text>
</svg>
